<svg width="218" height="185" viewBox="0 0 218 185" fill="none" xmlns="http://www.w3.org/2000/svg">
<g clip-path="url(#clip0_10_3)">
<path d="M25.92 130.344C16.832 130.344 10.56 128.232 7.104 124.008C4.736 121.064 3.552 117.032 3.552 111.912C3.552 109.544 3.808 106.952 4.32 104.136L7.68 84.936C10.688 67.784 21.184 59.208 39.168 59.208C46.592 59.208 52.224 60.808 56.064 64.008C59.904 67.144 61.824 71.464 61.824 76.968C61.824 79.208 61.504 81.48 60.864 83.784C60.288 86.088 59.712 87.816 59.136 88.968L58.176 90.696H41.184C42.848 88.392 43.68 85.736 43.68 82.728C43.68 76.968 41.28 74.088 36.48 74.088C30.016 74.088 26.144 77.832 24.864 85.32L21.6 103.752C21.28 105.48 21.12 107.176 21.12 108.84C21.12 113.256 23.712 115.464 28.896 115.464C34.144 115.464 37.504 112.84 38.976 107.592H31.104L33.024 96.936H58.464L56.928 105.192L56.448 107.976C53.76 122.888 43.584 130.344 25.92 130.344ZM101.512 59.208C116.936 59.208 124.648 65.512 124.648 78.12C124.648 80.232 124.424 82.504 123.976 84.936L120.616 104.136C119.08 113.032 115.752 119.624 110.632 123.912C105.512 128.2 98.3118 130.344 89.0318 130.344C79.7518 130.344 73.2878 128.2 69.6398 123.912C67.1438 120.968 65.8958 116.904 65.8958 111.72C65.8958 109.416 66.1518 106.888 66.6638 104.136L70.0238 84.936C73.0318 67.784 83.5278 59.208 101.512 59.208ZM91.6238 115.464C94.8238 115.464 97.3838 114.632 99.3038 112.968C101.224 111.304 102.568 108.232 103.336 103.752L106.6 85.32C106.792 84.04 106.888 82.888 106.888 81.864C106.888 76.68 104.264 74.088 99.0158 74.088C92.4238 74.216 88.4878 77.96 87.2078 85.32L83.9438 103.752C83.6878 105.352 83.5598 107.016 83.5598 108.744C83.5598 113.224 86.2478 115.464 91.6238 115.464Z" fill="#1C1C1C"/>
<path d="M176.452 49.1971C176.452 49.1971 172.174 50.0471 169.514 48.533C164.661 45.8039 158.733 43.2822 150.579 48.0329C135.474 56.8363 122.683 73.0391 112.272 87.2853C118.798 76.0319 122.93 66.8132 124.543 47.6214C125.329 39.0614 126.931 25.5866 122.448 22.3028C119.97 20.5085 119.857 15.8733 119.857 15.8733C118.065 18.8645 115.409 21.3705 112.582 23.3645C106.483 27.8517 100.946 35.1109 97.8297 43.0136C91.3909 60.0302 94.6355 76.2692 99.3407 88.918C94.3556 78.2842 89.1538 71.0797 77.904 61.8431C72.7429 57.5409 67.7653 57.8271 62.8976 59.1916C60.2023 59.9633 57.2889 58.5299 57.2889 58.5299C58.1315 61.0134 58.7324 63.7933 58.3452 66.4589C57.6085 72.3035 60.5101 77.6766 65.3564 82.8251C76.4531 94.673 84.4702 98.0391 98.6218 101.69C87.762 109.326 75.6374 116.077 65.2362 120.089L67.0494 124.842C77.8876 120.675 90.1059 113.861 101.168 106.124C102.714 120.673 106.307 140.023 120.291 151.54C125.569 155.714 132.679 155.789 138.4 155.299C141.022 155.078 143.169 157.339 145.527 158.547C145.527 158.547 143.691 154.825 144.555 151.811C146.02 146.298 145.501 140.039 141.471 133.782C135.331 124.154 128.499 118.306 121.504 113.786C131.534 117.741 143.992 121.131 158.48 125.439C172.53 128.175 175.401 126.094 181.548 121.629C184.294 119.564 185.339 116.769 188.678 116.002C188.678 116.002 186.14 112.849 184.437 110.291C180.954 105.058 181.654 100.427 173.255 98.5679C156.738 94.7645 140.318 95.7736 125.382 97.8948C140.645 93.2196 158.364 84.7756 168.762 74.162C175.47 68.0369 176.81 64.1645 174.711 56.5875C173.8 53.2656 174.489 52.0622 176.452 49.1971Z" fill="#696754"/>
<path d="M102.168 59.208C117.592 59.208 125.304 65.512 125.304 78.12C125.304 80.232 125.08 82.504 124.632 84.936L121.272 104.136C119.736 113.032 116.408 119.624 111.288 123.912C106.168 128.2 98.968 130.344 89.688 130.344C80.408 130.344 73.944 128.2 70.296 123.912C67.8 120.968 66.552 116.904 66.552 111.72C66.552 109.416 66.808 106.888 67.32 104.136L70.68 84.936C73.688 67.784 84.184 59.208 102.168 59.208ZM92.28 115.464C95.48 115.464 98.04 114.632 99.96 112.968C101.88 111.304 103.224 108.232 103.992 103.752L107.256 85.32C107.448 84.04 107.544 82.888 107.544 81.864C107.544 76.68 104.92 74.088 99.672 74.088C93.08 74.216 89.144 77.96 87.864 85.32L84.6 103.752C84.344 105.352 84.216 107.016 84.216 108.744C84.216 113.224 86.904 115.464 92.28 115.464Z" fill="#1C1C1C"/>
<path d="M59 65C58.6667 68.6667 59.2 76.8 64 80C68.8 83.2 62.6667 71.3333 59 65Z" fill="#696754" stroke="#696754"/>
<path d="M79 63.5C85 68.6667 96.6 79.8 99 89C101.4 98.2 101.667 104.167 101.5 106C91.1667 112.333 69.8 124.9 67 124.5L65.5 120C76.6667 115.167 99 104.8 99 102C84 98 71.5 89 69.5 86L79 63.5Z" fill="#696754" stroke="#696754"/>
</g>
<defs>
<clipPath id="clip0_10_3">
<rect width="217.397" height="184.397" fill="white"/>
</clipPath>
</defs>
</svg>
